# Blender 4.4.0
# www.blender.org
mtllib grassblade.mtl
o Plane.002
v -0.152318 0.000000 -0.713165
v -0.085553 0.000000 -0.730464
v -0.218635 1.385851 -1.106613
v -0.247691 0.828762 -0.828676
v -0.185149 0.304716 -0.723238
v -0.061743 0.304716 -0.755211
v -0.058270 0.828762 -0.877755
v -0.033803 0.000000 -0.006821
v 0.033803 0.000000 0.006821
v 0.078623 1.448789 -0.389651
v -0.069056 0.866400 -0.152409
v -0.058924 0.318555 -0.030237
v 0.066038 0.318555 -0.005022
v 0.122753 0.866400 -0.113706
v -0.592169 0.000000 -0.018591
v -0.539768 0.000000 -0.063434
v -0.824421 2.199723 -0.343025
v -0.728559 1.315472 -0.080531
v -0.626090 0.483667 -0.013233
v -0.529233 0.483667 -0.096120
v -0.579890 1.315472 -0.207756
v 0.408674 0.000000 0.073791
v 0.370557 0.000000 0.131270
v 0.720897 0.762585 0.322217
v 0.556813 0.456039 0.096011
v 0.439831 0.167674 0.059349
v 0.369377 0.167674 0.165592
v 0.448670 0.456039 0.259087
v 0.450980 0.000000 -0.339303
v 0.492301 0.000000 -0.284082
v 0.789906 1.224196 -0.549846
v 0.521705 0.732091 -0.471352
v 0.447852 0.269172 -0.373502
v 0.524228 0.269172 -0.271433
v 0.638938 0.732091 -0.314683
v 0.136681 0.000000 0.563657
v 0.166809 0.000000 0.625697
v 0.509316 1.216557 0.421031
v 0.231109 0.727522 0.447372
v 0.140079 0.267492 0.529484
v 0.195767 0.267492 0.644158
v 0.316588 0.727522 0.623389
v -0.324468 0.000000 0.471312
v -0.389144 0.000000 0.447361
v -0.494849 2.171615 0.832102
v -0.312196 1.298663 0.620605
v -0.303278 0.477487 0.498338
v -0.422825 0.477487 0.454067
v -0.495693 1.298663 0.552652
v -0.500926 0.000000 -0.626131
v -0.491569 0.000000 -0.694462
v -0.890077 1.018768 -0.714227
v -0.644006 0.609241 -0.581780
v -0.522714 0.224003 -0.599585
v -0.505418 0.224003 -0.725887
v -0.617458 0.609241 -0.775646
v 0.276148 0.000000 -0.630718
v 0.322630 0.000000 -0.681672
v 0.005719 2.074200 -0.924090
v 0.133170 1.240407 -0.675395
v 0.243145 0.456068 -0.621225
v 0.329059 0.456068 -0.715406
v 0.265044 1.240407 -0.819957
v 0.572521 0.000000 -0.679500
v 0.641440 0.000000 -0.682105
v 0.591964 1.616728 -1.078023
v 0.504085 0.966831 -0.812749
v 0.542606 0.355480 -0.696366
v 0.669996 0.355480 -0.701182
v 0.699620 0.966831 -0.820141
v 0.796853 0.000000 0.437568
v 0.786218 0.000000 0.505712
v 1.184286 1.650821 0.532935
v 0.940738 0.987220 0.395904
v 0.819134 0.362977 0.411435
v 0.799476 0.362977 0.537392
v 0.910565 0.987220 0.589239
v -0.786110 0.000000 0.227216
v -0.788758 0.000000 0.158298
v -1.184646 1.235073 0.208019
v -0.919317 0.738595 0.295735
v -0.802958 0.271564 0.257141
v -0.807853 0.271564 0.129755
v -0.926830 0.738595 0.100204
vn 0.2270 0.4253 0.8761
vn 0.2447 0.2192 0.9445
vn 0.2504 0.0589 0.9664
vn -0.1804 0.4100 0.8941
vn -0.1934 0.2101 0.9584
vn -0.1975 0.0564 0.9787
vn 0.6234 0.2839 0.7285
vn 0.6438 0.1402 0.7523
vn 0.6497 0.0372 0.7592
vn -0.6338 0.6494 -0.4203
vn -0.7716 0.3780 -0.5116
vn -0.8287 0.1066 -0.5495
vn -0.7069 0.4696 0.5289
vn -0.7759 0.2465 0.5806
vn -0.7989 0.0667 0.5978
vn -0.7931 0.4719 0.3851
vn -0.8714 0.2480 0.4232
vn -0.8975 0.0671 0.4359
vn 0.3326 0.2872 -0.8982
vn 0.3438 0.1419 -0.9283
vn 0.3470 0.0376 -0.9371
vn 0.8348 0.5386 0.1143
vn 0.9475 0.2923 0.1297
vn 0.9876 0.0800 0.1352
vn 0.7049 0.2995 0.6430
vn 0.7306 0.1485 0.6665
vn 0.7382 0.0394 0.6734
vn 0.0350 0.3736 0.9269
vn 0.0371 0.1891 0.9812
vn 0.0377 0.0505 0.9980
vn -0.9191 0.3669 -0.1434
vn -0.9709 0.1854 -0.1515
vn -0.9868 0.0495 -0.1540
vn 0.8839 0.4664 -0.0340
vn 0.9689 0.2445 -0.0372
vn 0.9971 0.0661 -0.0383
vt 0.477177 0.386890
vt 0.554298 0.382974
vt 0.549389 0.649656
vt 0.477177 0.146500
vt 0.527421 0.143949
vt 0.510583 0.000453
vt 0.483401 0.000453
vt 0.385218 0.395182
vt 0.443251 0.394106
vt 0.447723 0.674459
vt 0.400843 0.144698
vt 0.438651 0.143997
vt 0.443073 0.000453
vt 0.422618 0.000453
vt 0.901475 0.589021
vt 0.982918 0.592522
vt 0.920789 1.000000
vt 0.929858 0.214116
vt 0.982918 0.216397
vt 0.972006 0.000453
vt 0.943300 0.000453
vt 0.018602 0.233523
vt 0.098399 0.226594
vt 0.086309 0.391822
vt 0.018602 0.094918
vt 0.070589 0.090404
vt 0.050738 0.000453
vt 0.022612 0.000453
vt 0.210805 0.334943
vt 0.258191 0.343979
vt 0.197611 0.582997
vt 0.211515 0.126036
vt 0.242386 0.131924
vt 0.209663 0.000453
vt 0.192961 0.000453
vt 0.322044 0.337348
vt 0.380568 0.343105
vt 0.318339 0.582997
vt 0.326940 0.127999
vt 0.365068 0.131750
vt 0.334316 0.000453
vt 0.313688 0.000453
vt 0.819568 0.595435
vt 0.901475 0.598585
vt 0.845027 1.000000
vt 0.848113 0.224780
vt 0.901475 0.226832
vt 0.892758 0.000453
vt 0.863889 0.000453
vt 0.135284 0.294526
vt 0.191411 0.292179
vt 0.129836 0.500837
vt 0.139375 0.114565
vt 0.175941 0.113037
vt 0.144968 0.000453
vt 0.125186 0.000453
vt 0.727383 0.552364
vt 0.807167 0.556306
vt 0.739383 0.941093
vt 0.755188 0.198521
vt 0.807166 0.201090
vt 0.793824 0.000453
vt 0.765703 0.000453
vt 0.563599 0.449345
vt 0.633290 0.446911
vt 0.633290 0.755069
vt 0.570997 0.170538
vt 0.616400 0.168952
vt 0.609585 0.000453
vt 0.585022 0.000453
vt 0.644141 0.441261
vt 0.724283 0.447176
vt 0.657382 0.759720
vt 0.672071 0.160439
vt 0.724283 0.164293
vt 0.711340 0.000453
vt 0.683093 0.000453
vt 0.272912 0.337306
vt 0.318339 0.339317
vt 0.258191 0.582997
vt 0.272931 0.122961
vt 0.302526 0.124271
vt 0.269552 0.000453
vt 0.253540 0.000453
s 0
f 4/1/1 7/2/1 3/3/1
f 5/4/2 6/5/2 7/2/2 4/1/2
f 2/6/3 6/5/3 5/4/3 1/7/3
f 11/8/4 14/9/4 10/10/4
f 12/11/5 13/12/5 14/9/5 11/8/5
f 9/13/6 13/12/6 12/11/6 8/14/6
f 18/15/7 21/16/7 17/17/7
f 19/18/8 20/19/8 21/16/8 18/15/8
f 16/20/9 20/19/9 19/18/9 15/21/9
f 25/22/10 28/23/10 24/24/10
f 26/25/11 27/26/11 28/23/11 25/22/11
f 23/27/12 27/26/12 26/25/12 22/28/12
f 32/29/13 35/30/13 31/31/13
f 33/32/14 34/33/14 35/30/14 32/29/14
f 30/34/15 34/33/15 33/32/15 29/35/15
f 39/36/16 42/37/16 38/38/16
f 40/39/17 41/40/17 42/37/17 39/36/17
f 37/41/18 41/40/18 40/39/18 36/42/18
f 46/43/19 49/44/19 45/45/19
f 47/46/20 48/47/20 49/44/20 46/43/20
f 44/48/21 48/47/21 47/46/21 43/49/21
f 53/50/22 56/51/22 52/52/22
f 54/53/23 55/54/23 56/51/23 53/50/23
f 51/55/24 55/54/24 54/53/24 50/56/24
f 60/57/25 63/58/25 59/59/25
f 61/60/26 62/61/26 63/58/26 60/57/26
f 58/62/27 62/61/27 61/60/27 57/63/27
f 67/64/28 70/65/28 66/66/28
f 68/67/29 69/68/29 70/65/29 67/64/29
f 65/69/30 69/68/30 68/67/30 64/70/30
f 74/71/31 77/72/31 73/73/31
f 75/74/32 76/75/32 77/72/32 74/71/32
f 72/76/33 76/75/33 75/74/33 71/77/33
f 81/78/34 84/79/34 80/80/34
f 82/81/35 83/82/35 84/79/35 81/78/35
f 79/83/36 83/82/36 82/81/36 78/84/36
